<mxfile host="app.diagrams.net" modified="2023-08-18T13:58:26.493Z" agent="Mozilla/5.0 (X11; Ubuntu; Linux x86_64; rv:109.0) Gecko/20100101 Firefox/116.0" etag="grM7R3Dbzeh985d2kdgU" version="21.6.6">
  <diagram name="Stránka-1" id="6RW_hrpFbYXy2UKJol02">
    <mxGraphModel dx="1370" dy="795" grid="1" gridSize="10" guides="1" tooltips="1" connect="1" arrows="1" fold="1" page="1" pageScale="1" pageWidth="827" pageHeight="1169" math="0" shadow="0">
      <root>
        <mxCell id="0" />
        <mxCell id="1" parent="0" />
        <mxCell id="mziLdGlXHOmQ6duhwN0D-1" value="&lt;div&gt;Systém&lt;/div&gt;" style="rounded=0;whiteSpace=wrap;html=1;fontStyle=1" parent="1" vertex="1">
          <mxGeometry x="320" y="120" width="120" height="60" as="geometry" />
        </mxCell>
        <mxCell id="oR7sRp7mEWzF0eEVKKgx-2" value="vstup u" style="endArrow=none;html=1;rounded=0;entryX=0;entryY=0.5;entryDx=0;entryDy=0;verticalAlign=bottom;fontStyle=2" edge="1" parent="1" target="mziLdGlXHOmQ6duhwN0D-1">
          <mxGeometry width="50" height="50" relative="1" as="geometry">
            <mxPoint x="240" y="150" as="sourcePoint" />
            <mxPoint x="320" y="240" as="targetPoint" />
          </mxGeometry>
        </mxCell>
        <mxCell id="oR7sRp7mEWzF0eEVKKgx-4" value="&lt;div&gt;výstup y&lt;/div&gt;" style="endArrow=none;html=1;rounded=0;entryX=0;entryY=0.5;entryDx=0;entryDy=0;verticalAlign=bottom;" edge="1" parent="1">
          <mxGeometry width="50" height="50" relative="1" as="geometry">
            <mxPoint x="440" y="149.5" as="sourcePoint" />
            <mxPoint x="520" y="149.5" as="targetPoint" />
          </mxGeometry>
        </mxCell>
      </root>
    </mxGraphModel>
  </diagram>
</mxfile>
